<?xml version="1.0" encoding="utf-8"?>
<!-- Generator: Adobe Illustrator 21.1.0, SVG Export Plug-In . SVG Version: 6.00 Build 0)  -->
<svg version="1.1" id="Calque_1" xmlns="http://www.w3.org/2000/svg" xmlns:xlink="http://www.w3.org/1999/xlink" x="0px" y="0px"
	 viewBox="0 0 800 736" style="enable-background:new 0 0 800 736;" xml:space="preserve">
<style type="text/css">
	.st0{fill:#BC2931;}
	.st1{fill:#E2574C;}
</style>
<g>
	<path class="st0" d="M800,240.1C800,110.8,695.2,6,565.9,6C501.1,6,442.4,32.4,400,75l0,0l0,0C357.6,32.4,298.9,6,234.1,6
		C104.8,6,0,110.8,0,240.1C0,304.9,26.4,363.6,69,406l0,0l331,331l331-331l0,0C773.6,363.6,800,304.9,800,240.1z"/>
</g>
<g>
	<path class="st1" d="M399,736V74C356.7,32,298.4,6,234.1,6C104.8,6,0,110.8,0,240.1C0,304.9,26.4,363.6,69,406l0,0L399,736z"/>
</g>
</svg>
