<?xml version="1.0" standalone="no"?>
<!DOCTYPE svg PUBLIC "-//W3C//DTD SVG 20010904//EN"
 "http://www.w3.org/TR/2001/REC-SVG-20010904/DTD/svg10.dtd">
<svg version="1.0" xmlns="http://www.w3.org/2000/svg"
 width="473.000000pt" height="473.000000pt" viewBox="0 0 473.000000 473.000000"
 preserveAspectRatio="xMidYMid meet">
<metadata>
Created by potrace 1.16, written by Peter Selinger 2001-2019
</metadata>
<g transform="translate(0.000000,473.000000) scale(0.100000,-0.100000)"
fill="#000000" stroke="none">
<path d="M2295 4433 c-448 -16 -887 -179 -1236 -461 -108 -87 -293 -282 -369
-390 -266 -375 -393 -770 -393 -1217 0 -189 10 -280 49 -453 163 -727 706
-1312 1417 -1526 223 -67 324 -81 592 -81 262 0 376 14 575 71 736 210 1311
830 1459 1574 56 281 53 590 -8 868 -174 794 -818 1420 -1622 1577 -134 26
-332 42 -464 38z m312 -148 c428 -53 815 -245 1128 -559 751 -754 751 -1968 0
-2722 -252 -253 -548 -423 -894 -515 -262 -68 -592 -76 -871 -19 -724 148
-1319 724 -1490 1445 -49 206 -65 478 -40 681 53 430 237 809 544 1122 428
438 1014 642 1623 567z"/>
<path d="M1380 3484 c-119 -31 -189 -113 -198 -234 -4 -64 -2 -76 27 -134 24
-49 43 -72 77 -95 68 -44 106 -54 198 -49 98 5 170 39 217 102 76 103 61 266
-33 353 -62 59 -186 83 -288 57z"/>
<path d="M2834 2784 c-118 -24 -233 -97 -295 -188 -13 -20 -27 -36 -30 -36 -4
0 -4 45 -2 100 l5 100 -256 0 -256 0 0 -765 0 -765 253 2 252 3 2 474 c3 436
4 476 22 515 80 183 335 230 442 83 61 -85 63 -96 67 -609 l3 -468 249 0 c220
0 249 2 254 16 4 9 5 240 3 513 -4 530 -6 559 -59 691 -73 184 -217 302 -410
336 -94 17 -156 16 -244 -2z"/>
<path d="M1212 1998 l3 -763 229 -3 c127 -2 240 -1 253 3 l23 5 0 760 0 760
-255 0 -255 0 2 -762z"/>
</g>
</svg>
