<?xml version="1.0" standalone="no"?>
<!DOCTYPE svg PUBLIC "-//W3C//DTD SVG 20010904//EN"
 "http://www.w3.org/TR/2001/REC-SVG-20010904/DTD/svg10.dtd">
<svg version="1.0" xmlns="http://www.w3.org/2000/svg"
 width="512.000000pt" height="512.000000pt" viewBox="0 0 512.000000 512.000000"
 preserveAspectRatio="xMidYMid meet">
<metadata>
Created by potrace 1.16, written by Peter Selinger 2001-2019
</metadata>
<g transform="translate(0.000000,512.000000) scale(0.100000,-0.100000)"
fill="#000000" stroke="none">
<path d="M2350 4718 c-816 -77 -1533 -631 -1824 -1411 -88 -236 -128 -469
-128 -747 0 -216 14 -338 62 -532 135 -543 495 -1028 982 -1325 370 -226 841
-339 1270 -305 537 43 1002 256 1378 632 338 338 543 745 616 1225 11 74 16
173 16 305 0 216 -14 338 -62 532 -135 543 -495 1028 -982 1325 -387 236 -867
345 -1328 301z m498 -238 c421 -66 781 -249 1082 -550 370 -370 570 -851 570
-1370 0 -739 -417 -1408 -1086 -1743 -528 -264 -1180 -264 -1708 0 -327 164
-602 413 -794 719 -389 623 -389 1425 0 2048 156 248 381 473 626 626 223 137
466 228 727 270 159 26 419 26 583 0z"/>
<path d="M2915 3574 c-122 -30 -245 -125 -315 -244 -54 -92 -73 -173 -67 -288
l4 -92 -31 4 c-17 3 -58 8 -91 11 -99 10 -272 63 -391 119 -178 85 -305 174
-471 330 l-82 77 -14 -28 c-8 -15 -22 -51 -30 -80 -57 -192 -11 -377 131 -522
l62 -64 -42 7 c-23 4 -70 18 -105 32 -35 14 -67 24 -72 22 -16 -6 18 -148 53
-221 61 -126 152 -216 268 -263 27 -10 48 -23 48 -27 0 -5 -43 -7 -95 -5 l-94
3 6 -25 c12 -52 60 -127 118 -186 68 -68 171 -125 262 -145 32 -7 61 -15 65
-18 14 -12 -175 -115 -270 -147 -123 -42 -198 -54 -339 -54 -62 0 -113 -3
-113 -7 0 -22 191 -119 305 -156 173 -56 273 -71 495 -71 158 -1 225 3 293 17
493 100 896 447 1065 917 72 200 102 348 102 500 0 95 1 98 27 116 72 47 213
205 213 239 0 9 -29 5 -112 -16 -62 -16 -117 -29 -121 -29 -5 0 19 25 51 55
58 54 135 176 120 191 -4 3 -28 -5 -54 -20 -56 -32 -194 -76 -235 -76 -21 0
-46 13 -77 39 -128 106 -301 145 -467 105z"/>
</g>
</svg>
