<?xml version="1.0" standalone="no"?>
<!DOCTYPE svg PUBLIC "-//W3C//DTD SVG 20010904//EN"
 "http://www.w3.org/TR/2001/REC-SVG-20010904/DTD/svg10.dtd">
<svg version="1.0" xmlns="http://www.w3.org/2000/svg"
 width="360.000000pt" height="360.000000pt" viewBox="0 0 360.000000 360.000000"
 preserveAspectRatio="xMidYMid meet">
<metadata>
Created by potrace 1.16, written by Peter Selinger 2001-2019
</metadata>
<g transform="translate(0.000000,360.000000) scale(0.100000,-0.100000)"
fill="#000000" stroke="none">
<path d="M1545 3395 c-227 -37 -451 -126 -641 -254 -354 -238 -594 -594 -686
-1014 -19 -89 -22 -132 -22 -327 0 -195 3 -238 22 -327 46 -211 147 -441 269
-613 87 -121 252 -286 373 -373 116 -82 321 -185 454 -227 179 -56 313 -73
531 -67 278 8 430 45 670 163 166 82 293 172 425 304 240 240 394 539 452 873
17 105 20 149 15 312 -6 202 -21 300 -72 458 -39 121 -145 328 -222 437 -87
121 -252 286 -373 373 -170 121 -403 223 -608 268 -129 28 -453 35 -587 14z
m505 -142 c118 -19 300 -77 406 -131 277 -139 526 -387 664 -661 171 -341 202
-751 84 -1116 -118 -366 -399 -691 -747 -867 -107 -53 -289 -113 -412 -134
-132 -22 -356 -22 -490 0 -303 52 -573 193 -795 416 -313 312 -465 722 -429
1156 29 360 171 667 429 924 345 346 801 492 1290 413z"/>
<path d="M1921 2725 c-94 -21 -161 -58 -218 -118 -101 -106 -123 -185 -123
-439 l0 -178 -155 0 -155 0 0 -180 0 -180 155 0 155 0 0 -430 0 -430 190 0
190 0 0 430 0 430 145 0 c80 0 145 3 145 8 0 4 11 78 25 165 14 87 25 165 25
173 0 12 -30 14 -170 14 l-170 0 0 133 c1 239 43 286 253 287 l108 0 -3 153
-3 152 -45 7 c-111 16 -285 18 -349 3z"/>
</g>
</svg>
