<?xml version="1.0" encoding="UTF-8"?><svg id="Calque_1" xmlns="http://www.w3.org/2000/svg" width="1080" height="1080" viewBox="0 0 1080 1080"><defs><style>.cls-1{fill:#2864ba;}.cls-1,.cls-2{stroke-width:0px;}.cls-2{fill:#fff;}</style></defs><path class="cls-2" d="m576.55,469.28c-45.22,81.11-155.98-27.27-201.89-71.69-4.58-4.43-12.09-3.26-15.17,2.32-12.61,22.78-21.11,49.6-17.39,78.22.34,2.63,1.74,5,3.87,6.58,69.34,51.5,201.62,298.88,81.07,324.18-.73.15-1.49.23-2.24.21-26.94-.56-48.51-23.3-47.39-50.38,1.59-67.11-54.6-180.14-106.01-207.55-.51-.27-1-.57-1.45-.93-7.28-5.8-12.82-13.81-15.71-22.66-.25-.75-.57-1.46-.99-2.12-36.17-58.89,38.82-293.16,134.59-253.94,1.1.45,2.1,1.12,2.96,1.94,44.16,42.33,88.29,106.67,158.37,132.38,24.75,9.54,37.18,37.15,28.08,61.94-.19.52-.43,1.03-.7,1.51"/><path class="cls-1" d="m424.99,823.7c-.17,0-.34,0-.51,0-17.02-.35-32.86-7.42-44.59-19.9-11.68-12.42-17.74-28.59-17.08-45.53,1.42-62.88-52.74-169.92-98.29-194.21-1.34-.71-2.55-1.5-3.67-2.39-9.31-7.41-16.51-17.7-20.32-29.03-19.55-32.6-8.6-91.65-2.96-115.61,11.57-49.19,33.51-96.25,58.7-125.89,29.64-34.88,64.12-46.64,97.11-33.13,2.79,1.15,5.31,2.8,7.52,4.91,11.29,10.82,22.28,22.72,33.92,35.32,34.42,37.26,70.01,75.78,119.38,93.89l.22.08c15.56,6,27.91,17.66,34.78,32.85,6.86,15.17,7.48,32.12,1.75,47.74-.46,1.25-1.02,2.45-1.66,3.6-11.64,20.87-27.99,33-48.59,36.04-57.68,8.53-130.36-60.05-171.46-99.77-10.68,21.24-15.02,41.92-12.92,61.57,28.91,22.32,65.3,72.1,93.28,127.72,19.3,38.38,49.94,110.73,38.24,164.05-6.77,30.87-26.77,50.64-57.82,57.15-1.69.35-3.38.53-5.04.53Zm-146.37-285.21c26.78,14.46,55.43,49.04,78.68,94.99,22.54,44.54,35.51,91.49,34.7,125.6v.25c-.38,9.09,2.88,17.79,9.17,24.48,6.19,6.58,14.47,10.37,23.39,10.69,19.45-4.23,30.51-15.27,34.78-34.73,7.13-32.52-5.92-85.25-35.81-144.68-25.81-51.31-61.28-100.1-86.27-118.66-5.28-3.92-8.8-9.9-9.65-16.41-3.68-28.3,2.75-57.63,19.09-87.17,3.7-6.69,10.15-11.16,17.69-12.29,7.51-1.12,14.95,1.27,20.41,6.55l1.33,1.28c30.1,29.12,98.8,95.6,144.18,95.61,2.1,0,4.14-.14,6.13-.44,11.24-1.66,20.15-8.57,27.21-21.13,6.11-17.12-2.64-36.32-19.64-42.93-55.92-20.55-95.62-63.52-130.65-101.44-11.08-12-21.57-23.35-31.99-33.39-20.63-7.96-41.78.58-62.87,25.39-22.33,26.27-41.96,68.77-52.52,113.67-9.77,41.55-9.89,78.49-.3,94.1.99,1.6,1.81,3.36,2.41,5.2,1.97,6.02,5.69,11.49,10.52,15.47Zm-.38-.2s0,0,0,0c0,0,0,0,0,0Zm-37.43-5.18s.01.02.02.03c0,0-.01-.02-.02-.03Zm322.99-70.94s0,0,0,0h0Z"/><path class="cls-2" d="m1046.44,509.81c-89.52,54.99-162.3,64.32-261.03,61.11-5.98-.2-11.65,2.72-15.03,7.66-.06.09-.12.18-.18.27-5.88,8.72-2.81,20.55,6.52,25.41,80.15,41.68,142.38,98.68,193.77,177.01,35.12,51.89-47.01,106.53-81.12,53.23-49.37-75.74-109.49-124.94-191.93-160.65-.55-.24-1.09-.5-1.61-.79-8.84-4.96-15.99-12.83-20.17-22.07-13.32-31.1-13.32-66.38-.23-99.22,2.98-7.49,6.62-14.73,10.85-21.66,3.94-6.45,3.13-14.73-1.84-20.43-41.51-47.54-79.37-114.26-78.87-173.62.87-63.3,97.25-62.75,97.02.82-.31,37.22,42.7,102.91,79.64,133.87,2.55,2.14,5.65,3.49,8.94,3.91,20.22,2.57,54.57,1.42,96.95-6.71,54.35-10.42,88.19-25.84,97.68-33.67,47.5-40.4,110.13,34.45,62.73,74.04-.65.55-1.37,1.05-2.09,1.49"/><path class="cls-1" d="m927.16,870.93c-20.24,0-38.33-10.26-50.04-28.51-47.02-72.13-104.22-119.98-185.47-155.18-1.01-.44-1.98-.91-2.89-1.42-11.57-6.49-20.92-16.71-26.4-28.82l-.12-.27c-14.82-34.59-14.95-73.78-.37-110.37,3.25-8.17,7.27-16.2,11.95-23.86.59-.97.44-2.29-.38-3.22-52.1-59.68-82.93-128.22-82.47-183.35.56-40.59,32.08-61.64,63.14-61.64.2,0,.4,0,.59,0,31.16.27,62.63,21.87,62.48,62.64-.24,29.69,37.32,91.54,74.42,122.63.4.34.89.55,1.41.62,21.9,2.78,56.42.33,92.35-6.57,53.05-10.17,84.18-24.93,91.07-30.54,17.18-14.56,38.57-18.75,58.71-11.51,22.16,7.97,39.81,28.93,43.92,52.16,3.73,21.09-3.99,41.43-21.19,55.8-1.13.95-2.42,1.87-3.81,2.73-93.12,57.2-169.21,66.51-269.14,63.26-.98-.03-1.91.46-2.48,1.28l-.15.22c-.61.9-.56,1.77-.41,2.35.15.6.55,1.42,1.56,1.95,41.54,21.6,77.78,46.77,110.78,76.94,32.85,30.03,61.77,64.35,88.4,104.93,12.69,18.81,14.47,40.69,4.86,60.05-10.53,21.22-33.47,36.34-57.06,37.62-1.1.06-2.2.09-3.28.09Zm-224.19-210.61s.1.05.27.12c86.85,37.62,148.03,88.84,198.37,166.08l.07.1c8.45,13.21,19.46,15.48,27.18,15.06,13.22-.72,26.58-9.54,32.49-21.45,3.45-6.96,5.75-17.95-2.94-30.79l-.12-.17c-50.39-76.79-110.22-131.47-188.3-172.07-8.15-4.24-14.13-11.77-16.39-20.65-2.25-8.85-.61-18.28,4.5-25.86l.23-.34c6.24-9.14,16.54-14.37,27.56-14.02,96.66,3.15,165.59-5.32,252.91-58.96h0c.25-.15.35-.24.35-.24,11.66-9.74,12.51-20.78,11.18-28.32-2.31-13.06-12.61-25.3-25.05-29.78-7.22-2.6-18.3-3.61-30.01,6.36l-.16.14c-13.17,10.87-50.5,26.45-104.22,36.75-39.36,7.56-76.38,10.06-101.54,6.86-6.1-.78-11.8-3.27-16.49-7.21-40.33-33.8-85.2-103.07-84.85-145.17.08-22.76-16.79-33.13-33.54-33.27-.1,0-.2,0-.3,0-12.6,0-33.63,6.88-33.99,32.77-.4,48.1,27.73,109.37,75.27,163.82,9.25,10.6,10.58,25.72,3.3,37.64-3.82,6.26-7.1,12.8-9.74,19.45-11.68,29.31-11.67,60.53.03,87.93,2.93,6.41,7.89,11.82,13.96,15.23,0,0,0,0,0,0Z"/><path class="cls-2" d="m330.91,279.37c-.28.27-.55.54-.82.82.25-.28.53-.56.82-.82"/><path class="cls-1" d="m340.7,290.22h0c.06-.06.12-.11.17-.17l-2.01-1.84,1.58,1.76-21.1-19.64c.61-.67,1.21-1.26,1.82-1.81l19.78,21.47c-.08.08-.16.15-.23.23Z"/><path class="cls-2" d="m544.44,188.83c1.57,107.54-167.36,107.54-165.77,0-1.57-107.54,167.36-107.54,165.77,0"/><path class="cls-1" d="m461.55,284.07c-18.68,0-37.37-4.65-53.31-13.96-28.95-16.91-44.63-45.77-44.18-81.28-.45-35.51,15.24-64.37,44.19-81.27,31.89-18.61,74.73-18.61,106.61,0,28.95,16.91,44.63,45.76,44.17,81.28.45,35.51-15.23,64.37-44.19,81.28-15.94,9.31-34.62,13.96-53.3,13.96Zm0-161.25c-13.61,0-27.22,3.31-38.58,9.95-13.81,8.06-30.17,24.29-29.71,55.85v.21s0,.21,0,.21c-.46,31.56,15.9,47.79,29.7,55.85,22.72,13.27,54.45,13.27,77.17,0,13.81-8.06,30.17-24.3,29.71-55.85v-.21s0-.21,0-.21c.46-31.55-15.89-47.79-29.7-55.85-11.36-6.63-24.97-9.95-38.59-9.95Z"/><path class="cls-2" d="m921.74,362.37c1.57,107.54-167.36,107.54-165.77,0-1.57-107.54,167.36-107.54,165.77,0"/><path class="cls-1" d="m838.85,457.61c-18.68,0-37.37-4.65-53.31-13.96-28.95-16.91-44.63-45.77-44.17-81.28-.45-35.51,15.23-64.37,44.19-81.27,31.89-18.61,74.73-18.61,106.61,0,28.95,16.91,44.63,45.77,44.17,81.28.45,35.51-15.23,64.37-44.19,81.28-15.94,9.31-34.62,13.96-53.3,13.96Zm0-161.25c-13.61,0-27.22,3.31-38.58,9.95-13.81,8.06-30.17,24.29-29.71,55.85v.21s0,.21,0,.21c-.46,31.56,15.9,47.79,29.7,55.85,22.72,13.27,54.45,13.27,77.17,0,13.81-8.06,30.17-24.3,29.71-55.85v-.21s0-.21,0-.21c.46-31.55-15.89-47.79-29.7-55.85-11.36-6.63-24.97-9.95-38.59-9.95Z"/><path class="cls-2" d="m257.52,939.34c-181.51,6.02-306.27-212.09-209.4-365.66,28.94-46.87,111.38-141.56,160.7-71.58,12.64,23.62,3.75,53.02-19.87,65.67-42.88,21.35-73.08,65.14-82.79,111.76-9.49,45.56,15.22,91.1,52.26,123.73,118.37,103.18,188.73-37.26,237.85,37.79,33.21,76.49-84.99,96.83-138.74,98.28"/><path class="cls-1" d="m250.32,954.06c-43.26,0-85.73-12.11-123.29-35.24-37.09-22.83-68.62-55.7-91.18-95.04C13.27,784.38.82,740.49-.14,696.86c-1.03-46.77,11.38-92.03,35.88-130.91,23.27-37.67,76.49-101.77,128.51-103.35,15.46-.46,37.79,4.54,56.5,31.09l.52.73.42.79c16.42,30.68,4.82,69-25.85,85.43l-.39.2c-37.04,18.44-65.78,57.4-75.01,101.67-7.48,35.89,10.32,76.94,47.62,109.81,59.35,51.73,103.8,36.07,143.03,22.26,17.22-6.06,33.48-11.79,49.52-11.25,19.54.65,35.2,10.38,47.87,29.74l.68,1.04.5,1.14c12.66,29.15,5.69,50.38-2.38,63.06-12.27,19.27-36.13,34.05-70.91,43.92-33.65,9.55-66.02,11.37-78.41,11.71-2.55.08-5.09.13-7.63.13Zm-84.14-462.29c-.35,0-.69,0-1.04.02-36.59,1.11-83.57,55.53-104.59,89.57l-.07.12c-41.97,66.54-41.7,153.82.71,227.79,41.15,71.78,113.22,115.6,189.29,115.6,2.19,0,4.37-.04,6.56-.11h.09c40.37-1.09,107.11-13.21,125.52-42.13,6.13-9.63,6.37-20.96.71-34.61-14.7-21.67-29.15-17.67-62.57-5.9-42.09,14.82-99.73,35.12-171.97-27.84-20.86-18.38-37.18-39.79-47.27-61.98-11.59-25.48-14.84-50.96-9.68-75.74,5.29-25.39,16.16-49.93,31.44-70.96,15.92-21.91,36.29-39.47,58.92-50.78,16.11-8.74,22.32-28.76,14.12-45.06-8.75-12.09-18.63-17.98-30.17-17.98Z"/><path class="cls-2" d="m742.55,972.87c-277.29-.62-265.74-392.54-135.12-371.03,12.37,2.03,23.67,8.72,30.49,19.24,24.96,38.53-32.36,83.96-24.48,130.21.28,1.66.53,3.34.65,5.02,5.1,69.77,65.35,123.06,135.49,119.34,22.82-1.22,44.73-8.4,63.64-20.8,2.32-1.52,4.73-2.93,7.29-4.01,86.71-36.89,129.07,113.92-77.96,122.02"/><path class="cls-1" d="m742.82,987.47h-.3c-94.15-.21-168.29-44.47-208.77-124.62-19.95-39.5-30.56-86.44-29.87-132.18.67-44.56,11.69-83.62,31.04-109.98,19.25-26.23,45.85-38.04,74.9-33.25,16.87,2.77,31.58,12.15,40.37,25.71,18.06,27.88,4.33,56.91-7.78,82.53-8.93,18.88-17.36,36.72-14.56,53.17.42,2.5.68,4.48.82,6.41,4.5,61.62,58.38,109.1,120.16,105.83,20.17-1.08,39.67-7.45,56.4-18.43,3.45-2.26,6.49-3.93,9.57-5.24,28.05-11.93,55.84-8.42,74.36,9.4,17.15,16.5,22.19,41.53,13.14,65.32-8.02,21.09-39.59,70.64-159.16,75.33h-.3Zm-145.52-371.87c-14.9,0-27.94,7.5-38.86,22.37-30.08,40.98-38.11,133.58,1.36,211.72,24.93,49.36,76.83,108.23,182.48,108.58,104.77-4.18,128.07-44.31,132.71-56.52,4.82-12.66,2.48-25.65-6.09-33.9-9.81-9.44-25.76-10.77-42.68-3.57-1.45.62-3.04,1.5-5,2.79-21.03,13.8-45.54,21.81-70.86,23.17-37.76,2-74.17-10.69-102.57-35.74-28.37-25.02-45.51-59.51-48.26-97.11-.07-.98-.22-2.1-.48-3.64-4.34-25.5,6.97-49.43,16.95-70.54,11.71-24.77,18.44-40.63,9.67-54.18-4.33-6.68-11.84-11.33-20.61-12.78-2.64-.43-5.23-.65-7.77-.65Z"/><path class="cls-2" d="m562.68,503.2c6.44-2.26,16.38-4.28,28.57-2,7.09,1.33,13.05,6.16,15.59,12.91,3.01,7.98,5.82,21.61,5.19,44.28-.16,5.79-1.41,11.53-3.91,16.75-2.95,6.13-8.05,12.71-16.68,14.47-17.27,3.53-23.16-22.76-23.16-22.76l-11.96-52.1c-1.13-4.91,1.59-9.9,6.35-11.56"/><path class="cls-1" d="m588.25,604.57c-10.91,0-20.67-6.17-27.41-17.56-4.67-7.9-6.58-16.05-6.79-16.95l-11.94-52.02c-2.79-12.18,3.98-24.48,15.75-28.61h0c7.91-2.77,20.58-5.47,36.08-2.57,12.11,2.27,22.29,10.74,26.57,22.12,4.63,12.31,6.7,29.08,6.12,49.83-.22,8.11-2.02,15.74-5.34,22.66-5.91,12.31-15.22,20.07-26.92,22.47-2.07.42-4.12.63-6.13.63Zm-16.7-88.75l10.97,47.79c1.2,5.1,4.26,10.62,5.98,11.73,0,0,.02,0,.02,0,.91-.19,3.69-.76,6.45-6.5,1.51-3.15,2.37-6.9,2.47-10.83.58-21.12-2-32.72-4.26-38.74-.72-1.92-2.45-3.3-4.62-3.71-6.81-1.27-12.62-.75-17.02.26Zm-4.04,1.16h0s0,0,.01,0c0,0,0,0-.01,0Z"/></svg>