<?xml version="1.0" encoding="UTF-8"?><svg id="Calque_1" xmlns="http://www.w3.org/2000/svg" width="1080" height="1080" viewBox="0 0 1080 1080"><defs><style>.cls-1{fill:#2864ba;stroke-width:0px;}</style></defs><path class="cls-1" d="m1064.58,404.77l-212.97-203.35c-17.06-16.29-37.35-28.81-59.58-36.75L341.93,3.86c-22.9-8.18-48.44-3.14-66.52,13.13L17.95,248.95c-10.67,9.61-15.96,23.85-14.14,38.1,2.56,20.31,18.86,36.14,39.25,38.12l11.67,1.13c12.23,1.19,24.38-2.79,33.51-10.98l196.97-176.59c9.92-8.88,25.06-8.43,34.43,1.04l232.61,234.99c10.96,11.07,17.08,26.01,17.06,41.56l-.86,638.67c-.02,7.72,3.55,15,9.65,19.74,4.38,3.41,9.77,5.26,15.33,5.26h7.29c23.93,0,47.7-3.95,70.36-11.7l285.39-97.63c17.97-6.14,34.84-15.1,50-26.53,16.04-12.12,25.47-31.05,25.47-51.16v-387.83c0-10.41,6.46-19.72,16.22-23.39l2.62-.97c6.6-2.49,11.86-7.64,14.44-14.19l9.57-24.17c2.37-6,2.34-12.66-.09-18.62l-4.24-10.4c-1.32-3.27-3.33-6.2-5.88-8.64"/></svg>