<!--?xml version="1.0" encoding="utf-8"?-->
<!-- Svg Vector Icons : http://www.onlinewebfonts.com/icon -->

<svg version="1.1" xmlns="http://www.w3.org/2000/svg" xmlns:xlink="http://www.w3.org/1999/xlink" x="0px" y="0px" viewBox="0 0 256 256" enable-background="new 0 0 256 256" xml:space="preserve">
<metadata> Svg Vector Icons : http://www.onlinewebfonts.com/icon </metadata>
<g><g><path fill="#2864BA" data-title="Layer 0" xs="0" d="M32.7,37.7c23.8-19.5,55-29.8,85.8-27.3c10.3,1.1,20.2,4.8,29.5,9.3c10.2,4.6,20.5,10.4,32.1,10.2c17.8,0.1,34-9.1,48-19.2c3.5-2.1,7.9,1.2,7.3,5.1c0,42.9,0,85.9,0,128.8c0.3,3.1-2.3,5.2-4.9,6.2c-18.5,8.6-40.1,12.4-60.1,6.7c-12.3-3.5-24.7-7.3-37.6-7.1c-16.5-1.1-31.5,7.7-44.2,17.3c-2.5,2-5,4-7.3,6.2c7.9,21.7,15.7,43.4,23.4,65.2c1.5,3.1-1.2,7-4.6,6.9c-2.7,0-4.4-2.6-5.2-5C70.9,173.5,46.5,106.1,22.6,38.5c-0.9-2.6-2.4-5.3-1.9-8.2c0.8-3.5,5.7-4.8,8.1-2.1C30.8,31.1,31.5,34.5,32.7,37.7z M67.8,28.1c4.6,11.9,9.2,23.8,13.9,35.7c14.4-4.7,29.7-7.3,44.9-6.1c4.3,14.6,7.8,29.4,11.9,44c0,0.3-0.1,1.1-0.1,1.4c-0.3,0.1-1,0.4-1.4,0.5c-6.5-0.9-13.1-1.2-19.6-0.9c-6.4,0.7-12.6,2.5-18.7,4.4c-5.8-14.3-11.4-28.7-16.8-43.2C70.1,68.5,59,75,49.2,83c5.2,15.3,10.8,30.4,16.2,45.6c10.1-8.6,20.9-16.5,33.2-21.6c4.6,12.1,9.2,24.2,13.9,36.3c11.8-4.2,24.5-3,36.7-1.7c-3.1-12-6.3-24-9.6-36c0.1-0.3,0.2-1,0.3-1.3c0.4-0.1,1.1-0.2,1.4-0.3c9.9,2,19.7,5,29.5,7.4c-3.2-13.8-6.3-27.5-9.5-41.3c-8.4-3.9-16.8-7.7-25.6-10.6c-2.8-1-5.8-1.5-8.8-1.7c-3.4-12.6-6.7-25.3-10.1-37.9C100.1,19,83.3,21.9,67.8,28.1z M153,33c2.3,12.6,5.5,24.9,8.4,37.4c6.9,2.7,14.1,5.3,21.6,5.4c5,0.2,10-0.7,14.9-1.6c-0.6-12.1-1.7-24.2-2.8-36.2c-4.3,1-8.7,1.6-13.1,1.9C171.8,40.2,162.1,37,153,33z M198,74.1c1.2,12.5,2.2,25.1,3,37.7c8.5-1.6,16.7-4.7,24.5-8.5c0-14.1,0-28.3,0-42.5C217,66.4,207.8,71,198,74.1z M170.7,111.5c3,12.7,5.6,25.5,8.9,38.1c8.1,1,16.4,1.1,24.5-0.6c-0.7-12.4-2.1-24.7-2.7-37C191.2,113.6,180.8,113.7,170.7,111.5z"/></g></g>
</svg>